<?xml version="1.0" encoding="UTF-8" standalone="no"?>
<svg
   width="349.80728"
   zoomAndPan="magnify"
   viewBox="0 0 262.35546 324"
   height="432"
   preserveAspectRatio="xMidYMid"
   version="1.0"
   id="svg6"
   sodipodi:docname="download_icon_black.svg"
   inkscape:version="1.4 (86a8ad7, 2024-10-11)"
   xmlns:inkscape="http://www.inkscape.org/namespaces/inkscape"
   xmlns:sodipodi="http://sodipodi.sourceforge.net/DTD/sodipodi-0.dtd"
   xmlns="http://www.w3.org/2000/svg"
   xmlns:svg="http://www.w3.org/2000/svg">
  <sodipodi:namedview
     id="namedview6"
     pagecolor="#ffffff"
     bordercolor="#000000"
     borderopacity="0.25"
     inkscape:showpageshadow="2"
     inkscape:pageopacity="0.0"
     inkscape:pagecheckerboard="0"
     inkscape:deskcolor="#d1d1d1"
     inkscape:zoom="0.71574074"
     inkscape:cx="175.34282"
     inkscape:cy="215.86028"
     inkscape:window-width="1920"
     inkscape:window-height="991"
     inkscape:window-x="-9"
     inkscape:window-y="-9"
     inkscape:window-maximized="1"
     inkscape:current-layer="svg6" />
  <defs
     id="defs1">
    <clipPath
       id="4a5a9b5798">
      <path
         d="m 273.78125,243 h 262.5 v 324 h -262.5 z m 0,0"
         clip-rule="nonzero"
         id="path1" />
    </clipPath>
  </defs>
  <g
     clip-path="url(#4a5a9b5798)"
     id="g2"
     transform="translate(-273.85156,-243)">
    <path
       fill="#000000"
       d="m 312.43359,258.42969 c -12.78515,0 -23.14843,10.35937 -23.14843,23.14062 v 246.85938 c 0,12.78125 10.36328,23.14062 23.14843,23.14062 H 497.625 c 12.78516,0 23.14844,-10.35937 23.14844,-23.14062 V 357.47656 c 0,-6.7539 -2.94922,-13.17187 -8.08203,-17.57031 L 424.10937,264 c -4.19531,-3.59375 -9.53906,-5.57031 -15.0625,-5.57031 z m -38.58203,23.14062 C 273.85156,260.26953 291.125,243 312.43359,243 h 96.61328 c 9.20704,0 18.11329,3.29297 25.10547,9.28516 l 88.58203,75.90625 c 8.55079,7.32812 13.47266,18.02734 13.47266,29.28515 V 528.42969 C 536.20703,549.73047 518.93359,567 497.625,567 H 312.43359 c -21.30859,0 -38.58203,-17.26953 -38.58203,-38.57031 z m 0,0"
       fill-opacity="1"
       fill-rule="evenodd"
       id="path2" />
  </g>
  <path
     fill="#000000"
     d="m 138.89453,69.42969 v -54 h 15.4336 v 54 c 0,12.78125 10.36328,23.14062 23.14843,23.14062 h 69.44532 V 108 h -69.44532 c -21.30859,0 -38.58203,-17.26953 -38.58203,-38.57031 z m 0,0"
     fill-opacity="1"
     fill-rule="evenodd"
     id="path3" />
  <path
     fill="#000000"
     d="M 69.449218,262.28516 H 192.91016 v 15.42968 H 69.449218 Z m 0,0"
     fill-opacity="1"
     fill-rule="evenodd"
     id="path4" />
  <path
     fill="#000000"
     d="m 123.46094,131.14453 h 15.43359 v 92.57031 h -15.43359 z m 0,0"
     fill-opacity="1"
     fill-rule="evenodd"
     id="path5" />
  <path
     fill="#000000"
     d="m 125.72266,229.16797 c 3.01172,3.01172 7.89844,3.01172 10.91406,0 l 46.29688,-46.28516 -10.91407,-10.91015 -40.83984,40.83203 -40.843752,-40.83203 -10.91016,10.91015 z m 0,0"
     fill-opacity="1"
     fill-rule="evenodd"
     id="path6" />
</svg>
