<?xml version="1.0" encoding="UTF-8" standalone="no"?>
<svg
   width="250.06578"
   zoomAndPan="magnify"
   viewBox="0 0 187.54933 187.54933"
   height="250.06578"
   preserveAspectRatio="xMidYMid"
   version="1.0"
   id="svg82"
   xmlns="http://www.w3.org/2000/svg"
   xmlns:svg="http://www.w3.org/2000/svg">
  <defs
     id="defs17">
    <clipPath
       id="3633ca993f">
      <path
         d="m 187.5,99.25 c -48.73828,0 -88.25,39.51172 -88.25,88.25 0,48.73828 39.51172,88.25 88.25,88.25 48.73828,0 88.25,-39.51172 88.25,-88.25 0,-48.73828 -39.51172,-88.25 -88.25,-88.25 z m 0,0"
         clip-rule="nonzero"
         id="path2" />
    </clipPath>
    <clipPath
       id="7053a3538b">
      <path
         d="m 187.5,100.25 c -48.1875,0 -87.25,39.0625 -87.25,87.25 0,48.1875 39.0625,87.25 87.25,87.25 48.1875,0 87.25,-39.0625 87.25,-87.25 0,-48.1875 -39.0625,-87.25 -87.25,-87.25 z m 0,0"
         clip-rule="nonzero"
         id="path4" />
    </clipPath>
    <clipPath
       id="b176c9c55b">
      <path
         d="m 187.5,104.50781 c -45.83594,0 -82.99219,37.15625 -82.99219,82.99219 0,45.83594 37.15625,82.99219 82.99219,82.99219 45.83594,0 82.99219,-37.15625 82.99219,-82.99219 0,-45.83594 -37.15625,-82.99219 -82.99219,-82.99219 z m 0,0"
         clip-rule="nonzero"
         id="path6" />
    </clipPath>
    <clipPath
       id="795a5b9ec2">
      <path
         d="m 84.117188,206.13672 112.371092,5.35547 -5.35547,112.375 -112.374998,-5.35938 z m 0,0"
         clip-rule="nonzero"
         id="path8" />
    </clipPath>
    <clipPath
       id="962937575b">
      <path
         d="m 187.5,105.44531 c -45.31641,0 -82.05469,36.73828 -82.05469,82.05469 0,45.31641 36.73828,82.05469 82.05469,82.05469 45.31641,0 82.05469,-36.73828 82.05469,-82.05469 0,-45.31641 -36.73828,-82.05469 -82.05469,-82.05469 z m 0,0"
         clip-rule="nonzero"
         id="path10" />
    </clipPath>
    <clipPath
       id="4a389a3270">
      <path
         d="m 179.03516,105.89844 95.18359,-73.121096 72.55078,94.449216 -95.18359,73.11719 z m 0,0"
         clip-rule="nonzero"
         id="path12" />
    </clipPath>
    <clipPath
       id="ebcabec41c">
      <path
         d="m 226.54687,69.398438 c -26.24218,20.15625 -31.27343,57.640622 -11.23828,83.722652 20.03516,26.07813 57.54688,30.88282 83.78907,10.72657 C 325.33594,143.6875 330.36719,106.20703 310.33203,80.125 290.30078,54.042969 252.78516,49.242188 226.54687,69.398438 Z m 0,0"
         clip-rule="nonzero"
         id="path13" />
    </clipPath>
    <clipPath
       id="ad6c7599e9">
      <path
         d="m 94.613281,183.95312 c -40.269531,0 -72.917969,32.64844 -72.917969,72.91797 0,40.26953 32.648438,72.91797 72.917969,72.91797 40.269529,0 72.917969,-32.64844 72.917969,-72.91797 0,-40.26953 -32.64844,-72.91797 -72.917969,-72.91797 z m 0,0"
         clip-rule="nonzero"
         id="path15" />
    </clipPath>
    <clipPath
       id="b83e24f4d7">
      <path
         d="m 58.390625,171.33203 111.925785,11.375 -11.375,111.92188 -111.925785,-11.375 z m 0,0"
         clip-rule="nonzero"
         id="path17" />
    </clipPath>
    <clipPath
       clipPathUnits="userSpaceOnUse"
       id="clipPath84">
      <circle
         style="fill:#000000;fill-opacity:0.223333;stroke-width:1.20184"
         id="circle84"
         cx="187.97556"
         cy="186.76517"
         r="93.774666" />
    </clipPath>
    <clipPath
       clipPathUnits="userSpaceOnUse"
       id="clipPath85">
      <circle
         style="fill:#000000;fill-opacity:0.223333;stroke-width:1.20184"
         id="circle85"
         cx="187.97556"
         cy="186.76517"
         r="93.774666" />
    </clipPath>
    <clipPath
       clipPathUnits="userSpaceOnUse"
       id="clipPath86">
      <circle
         style="fill:#000000;fill-opacity:0.223333;stroke-width:1.20184"
         id="circle86"
         cx="187.97556"
         cy="186.76517"
         r="93.774666" />
    </clipPath>
    <clipPath
       clipPathUnits="userSpaceOnUse"
       id="clipPath87">
      <circle
         style="fill:#000000;fill-opacity:0.223333;stroke-width:1.20184"
         id="circle87"
         cx="187.97556"
         cy="186.76517"
         r="93.774666" />
    </clipPath>
    <clipPath
       clipPathUnits="userSpaceOnUse"
       id="clipPath88">
      <circle
         style="fill:#000000;fill-opacity:0.223333;stroke-width:1.20184"
         id="circle88"
         cx="187.97556"
         cy="186.76517"
         r="93.774666" />
    </clipPath>
    <clipPath
       clipPathUnits="userSpaceOnUse"
       id="clipPath89">
      <circle
         style="fill:#000000;fill-opacity:0.223333;stroke-width:1.20184"
         id="circle89"
         cx="187.97556"
         cy="186.76517"
         r="93.774666" />
    </clipPath>
    <clipPath
       clipPathUnits="userSpaceOnUse"
       id="clipPath90">
      <circle
         style="fill:#000000;fill-opacity:0.223333;stroke-width:1.20184"
         id="circle90"
         cx="187.97556"
         cy="186.76517"
         r="93.774666" />
    </clipPath>
    <clipPath
       clipPathUnits="userSpaceOnUse"
       id="clipPath91">
      <circle
         style="fill:#000000;fill-opacity:0.223333;stroke-width:1.20184"
         id="circle91"
         cx="187.97556"
         cy="186.76517"
         r="93.774666" />
    </clipPath>
    <clipPath
       clipPathUnits="userSpaceOnUse"
       id="clipPath92">
      <circle
         style="fill:#000000;fill-opacity:0.223333;stroke-width:1.20184"
         id="circle92"
         cx="187.97556"
         cy="186.76517"
         r="93.774666" />
    </clipPath>
    <clipPath
       clipPathUnits="userSpaceOnUse"
       id="clipPath93">
      <circle
         style="fill:#000000;fill-opacity:0.223333;stroke-width:1.20184"
         id="circle93"
         cx="187.97556"
         cy="186.76517"
         r="93.774666" />
    </clipPath>
    <clipPath
       clipPathUnits="userSpaceOnUse"
       id="clipPath94">
      <circle
         style="fill:#000000;fill-opacity:0.223333;stroke-width:1.20184"
         id="circle94"
         cx="187.97556"
         cy="186.76517"
         r="93.774666" />
    </clipPath>
    <clipPath
       clipPathUnits="userSpaceOnUse"
       id="clipPath95">
      <circle
         style="fill:#000000;fill-opacity:0.223333;stroke-width:1.20184"
         id="circle95"
         cx="187.97556"
         cy="186.76517"
         r="93.774666" />
    </clipPath>
    <clipPath
       clipPathUnits="userSpaceOnUse"
       id="clipPath96">
      <circle
         style="fill:#000000;fill-opacity:0.223333;stroke-width:1.20184"
         id="circle96"
         cx="187.97556"
         cy="186.76517"
         r="93.774666" />
    </clipPath>
    <clipPath
       clipPathUnits="userSpaceOnUse"
       id="clipPath97">
      <circle
         style="fill:#000000;fill-opacity:0.223333;stroke-width:1.20184"
         id="circle97"
         cx="187.97556"
         cy="186.76517"
         r="93.774666" />
    </clipPath>
    <clipPath
       clipPathUnits="userSpaceOnUse"
       id="clipPath98">
      <circle
         style="fill:#000000;fill-opacity:0.223333;stroke-width:1.20184"
         id="circle98"
         cx="187.97556"
         cy="186.76517"
         r="93.774666" />
    </clipPath>
    <clipPath
       clipPathUnits="userSpaceOnUse"
       id="clipPath99">
      <circle
         style="fill:#000000;fill-opacity:0.223333;stroke-width:1.20184"
         id="circle99"
         cx="187.97556"
         cy="186.76517"
         r="93.774666" />
    </clipPath>
    <clipPath
       clipPathUnits="userSpaceOnUse"
       id="clipPath100">
      <circle
         style="fill:#000000;fill-opacity:0.223333;stroke-width:1.20184"
         id="circle100"
         cx="187.97556"
         cy="186.76517"
         r="93.774666" />
    </clipPath>
    <clipPath
       clipPathUnits="userSpaceOnUse"
       id="clipPath101">
      <circle
         style="fill:#000000;fill-opacity:0.223333;stroke-width:1.20184"
         id="circle101"
         cx="187.97556"
         cy="186.76517"
         r="93.774666" />
    </clipPath>
    <clipPath
       clipPathUnits="userSpaceOnUse"
       id="clipPath102">
      <circle
         style="fill:#000000;fill-opacity:0.223333;stroke-width:1.20184"
         id="circle102"
         cx="187.97556"
         cy="186.76517"
         r="93.774666" />
    </clipPath>
    <clipPath
       clipPathUnits="userSpaceOnUse"
       id="clipPath103">
      <circle
         style="fill:#000000;fill-opacity:0.223333;stroke-width:1.20184"
         id="circle103"
         cx="187.97556"
         cy="186.76517"
         r="93.774666" />
    </clipPath>
    <clipPath
       clipPathUnits="userSpaceOnUse"
       id="clipPath104">
      <circle
         style="fill:#000000;fill-opacity:0.223333;stroke-width:1.20184"
         id="circle104"
         cx="187.97556"
         cy="186.76517"
         r="93.774666" />
    </clipPath>
    <clipPath
       clipPathUnits="userSpaceOnUse"
       id="clipPath105">
      <circle
         style="fill:#000000;fill-opacity:0.223333;stroke-width:1.20184"
         id="circle105"
         cx="187.97556"
         cy="186.76517"
         r="93.774666" />
    </clipPath>
    <clipPath
       clipPathUnits="userSpaceOnUse"
       id="clipPath106">
      <circle
         style="fill:#000000;fill-opacity:0.223333;stroke-width:1.20184"
         id="circle106"
         cx="187.97556"
         cy="186.76517"
         r="93.774666" />
    </clipPath>
    <clipPath
       clipPathUnits="userSpaceOnUse"
       id="clipPath107">
      <circle
         style="fill:#000000;fill-opacity:0.223333;stroke-width:1.20184"
         id="circle107"
         cx="187.97556"
         cy="186.76517"
         r="93.774666" />
    </clipPath>
    <clipPath
       clipPathUnits="userSpaceOnUse"
       id="clipPath108">
      <circle
         style="fill:#000000;fill-opacity:0.223333;stroke-width:1.20184"
         id="circle108"
         cx="187.97556"
         cy="186.76517"
         r="93.774666" />
    </clipPath>
    <clipPath
       clipPathUnits="userSpaceOnUse"
       id="clipPath109">
      <circle
         style="fill:#000000;fill-opacity:0.223333;stroke-width:1.20184"
         id="circle109"
         cx="187.97556"
         cy="186.76517"
         r="93.774666" />
    </clipPath>
  </defs>
  <g
     id="g109"
     transform="translate(-107.02148,-92.990501)">
    <rect
       x="-37.5"
       width="450"
       fill="#ffffff"
       y="-37.5"
       height="450"
       fill-opacity="1"
       id="rect17"
       clip-path="url(#clipPath109)"
       transform="translate(12.820592)" />
    <rect
       x="-37.5"
       width="450"
       fill="#edecec"
       y="-37.5"
       height="450"
       fill-opacity="1"
       id="rect18"
       clip-path="url(#clipPath108)"
       transform="translate(12.820592)" />
    <g
       clip-path="url(#clipPath107)"
       id="g19"
       transform="translate(12.820592)">
      <g
         clip-path="url(#3633ca993f)"
         id="g18">
        <path
           fill="#000000"
           d="m 99.25,99.25 h 176.5 v 176.5 H 99.25 Z m 0,0"
           fill-opacity="1"
           fill-rule="nonzero"
           id="path18" />
      </g>
    </g>
    <g
       clip-path="url(#clipPath106)"
       id="g21"
       transform="translate(12.820592)">
      <g
         clip-path="url(#7053a3538b)"
         id="g20">
        <path
           fill="#edecec"
           d="m 100.25,100.25 h 174.5 v 174.5 h -174.5 z m 0,0"
           fill-opacity="1"
           fill-rule="nonzero"
           id="path19" />
      </g>
    </g>
    <g
       clip-path="url(#clipPath105)"
       id="g23"
       transform="translate(12.820592)">
      <g
         clip-path="url(#b176c9c55b)"
         id="g22">
        <path
           fill="#000000"
           d="M 104.50781,104.50781 H 270.49219 V 270.49219 H 104.50781 Z m 0,0"
           fill-opacity="1"
           fill-rule="nonzero"
           id="path21" />
      </g>
    </g>
    <g
       clip-path="url(#clipPath104)"
       id="g25"
       transform="translate(12.820592)">
      <g
         clip-path="url(#795a5b9ec2)"
         id="g24">
        <path
           fill="#edecec"
           d="m 84.117188,206.13672 112.371092,5.35547 -5.35547,112.375 -112.374998,-5.35938 z m 0,0"
           fill-opacity="1"
           fill-rule="nonzero"
           id="path23" />
      </g>
    </g>
    <g
       clip-path="url(#clipPath103)"
       id="g27"
       transform="translate(12.820592)">
      <g
         clip-path="url(#962937575b)"
         id="g26">
        <path
           fill="#edecec"
           d="M 105.44531,105.44531 H 269.55469 V 269.55469 H 105.44531 Z m 0,0"
           fill-opacity="1"
           fill-rule="nonzero"
           id="path25" />
      </g>
    </g>
    <g
       clip-path="url(#clipPath102)"
       id="g30"
       transform="translate(12.820592)">
      <g
         clip-path="url(#4a389a3270)"
         id="g29">
        <g
           clip-path="url(#ebcabec41c)"
           id="g28">
          <path
             fill="#edecec"
             d="m 179.03516,105.89844 95.18359,-73.121096 72.55078,94.449216 -95.18359,73.11719 z m 0,0"
             fill-opacity="1"
             fill-rule="nonzero"
             id="path27" />
        </g>
      </g>
    </g>
    <g
       clip-path="url(#clipPath101)"
       id="g32"
       transform="translate(12.820592)">
      <g
         clip-path="url(#ad6c7599e9)"
         id="g31">
        <path
           fill="#edecec"
           d="M 21.695312,183.95312 H 167.53125 V 329.78906 H 21.695312 Z m 0,0"
           fill-opacity="1"
           fill-rule="nonzero"
           id="path30" />
      </g>
    </g>
    <g
       clip-path="url(#clipPath100)"
       id="g34"
       transform="translate(12.820592)">
      <g
         clip-path="url(#b83e24f4d7)"
         id="g33">
        <path
           fill="#edecec"
           d="m 58.390625,171.33203 111.925785,11.375 -11.375,111.92188 -111.925785,-11.375 z m 0,0"
           fill-opacity="1"
           fill-rule="nonzero"
           id="path32" />
      </g>
    </g>
    <g
       fill="#000000"
       fill-opacity="1"
       id="g37"
       clip-path="url(#clipPath99)"
       transform="translate(12.820592)">
      <g
         transform="translate(207.49632,110.9142)"
         id="g36">
        <g
           id="g35">
          <path
             d="m 9.09375,-7.46875 -2.328125,6.5625 C 6.429688,0.0507812 5.90625,0.695312 5.1875,1.03125 4.476562,1.375 3.660156,1.382812 2.734375,1.0625 1.617188,0.664062 0.847656,-0.125 0.421875,-1.3125 L 1.625,-2.25 c 0.382812,0.917969 0.929688,1.5 1.640625,1.75 0.4375,0.15625 0.816406,0.148438 1.140625,-0.03125 0.332031,-0.175781 0.585938,-0.507812 0.765625,-1 l 1.78125,-5.078125 -3.28125,-1.15625 0.515625,-1.4375 z m 0,0"
             id="path34" />
        </g>
      </g>
    </g>
    <g
       fill="#000000"
       fill-opacity="1"
       id="g40"
       clip-path="url(#clipPath98)"
       transform="translate(12.820592)">
      <g
         transform="translate(219.4999,115.48975)"
         id="g39">
        <g
           id="g38">
          <path
             d="m 6.078125,-6.484375 c 1.375,-0.332031 2.710937,-0.117187 4.015625,0.640625 1.3125,0.75 2.164062,1.804688 2.5625,3.15625 0.40625,1.355469 0.25,2.65625 -0.46875,3.90625 -0.71875,1.25 -1.765625,2.039062 -3.140625,2.375 -1.375,0.34375 -2.71875,0.132812 -4.03125,-0.625 -1.304687,-0.75 -2.15625,-1.808594 -2.5625,-3.171875 C 2.054688,-1.566406 2.21875,-2.875 2.9375,-4.125 3.65625,-5.375 4.703125,-6.160156 6.078125,-6.484375 Z m 3.28125,1.953125 c -0.867187,-0.5 -1.777344,-0.625 -2.734375,-0.375 -0.960938,0.242188 -1.6875,0.792969 -2.1875,1.65625 -0.5,0.855469 -0.617188,1.761719 -0.34375,2.71875 0.269531,0.957031 0.832031,1.679688 1.6875,2.171875 0.851562,0.5 1.753906,0.617187 2.703125,0.359375 0.957031,-0.25 1.6875,-0.808594 2.1875,-1.671875 0.5,-0.851563 0.617187,-1.753906 0.359375,-2.703125 -0.261719,-0.945312 -0.820312,-1.664062 -1.671875,-2.15625 z m 0,0"
             id="path37" />
        </g>
      </g>
    </g>
    <g
       fill="#000000"
       fill-opacity="1"
       id="g43"
       clip-path="url(#clipPath97)"
       transform="translate(12.820592)">
      <g
         transform="translate(234.09551,124.67806)"
         id="g42">
        <g
           id="g41">
          <path
             d="m 10.15625,-4.609375 c 0.976562,0.855469 1.640625,1.886719 1.984375,3.09375 L 10.625,-0.84375 C 10.257812,-1.988281 9.71875,-2.875 9,-3.5 8.613281,-3.832031 8.25,-4.023438 7.90625,-4.078125 7.570312,-4.128906 7.296875,-4.03125 7.078125,-3.78125 c -0.21875,0.25 -0.308594,0.558594 -0.265625,0.921875 0.050781,0.355469 0.191406,0.710937 0.421875,1.0625 0.226563,0.34375 0.460937,0.734375 0.703125,1.171875 0.25,0.429688 0.460938,0.84375 0.640625,1.25 0.1875,0.40625 0.25,0.84375 0.1875,1.3125 C 8.710938,2.40625 8.492188,2.859375 8.109375,3.296875 7.535156,3.953125 6.804688,4.25 5.921875,4.1875 5.046875,4.125 4.179688,3.722656 3.328125,2.984375 2.753906,2.484375 2.289062,1.890625 1.9375,1.203125 1.59375,0.515625 1.378906,-0.191406 1.296875,-0.921875 L 2.8125,-1.53125 c 0.082031,0.6875 0.269531,1.324219 0.5625,1.90625 0.289062,0.59375 0.640625,1.066406 1.046875,1.421875 0.445313,0.382813 0.863281,0.601563 1.25,0.65625 0.394531,0.0625 0.71875,-0.054687 0.96875,-0.34375 0.226563,-0.25 0.316406,-0.554687 0.265625,-0.90625 -0.054688,-0.355469 -0.195312,-0.710937 -0.421875,-1.0625 -0.230469,-0.34375 -0.46875,-0.726563 -0.71875,-1.15625 -0.242187,-0.4375 -0.460937,-0.851563 -0.65625,-1.25 C 4.921875,-2.660156 4.851562,-3.09375 4.90625,-3.5625 4.96875,-4.03125 5.1875,-4.476562 5.5625,-4.90625 c 0.550781,-0.632812 1.242188,-0.925781 2.078125,-0.875 0.84375,0.054688 1.679687,0.445312 2.515625,1.171875 z m 0,0"
             id="path40" />
        </g>
      </g>
    </g>
    <g
       fill="#000000"
       fill-opacity="1"
       id="g46"
       clip-path="url(#clipPath96)"
       transform="translate(12.820592)">
      <g
         transform="translate(244.79467,134.61378)"
         id="g45">
        <g
           id="g44">
          <path
             d="m 11.515625,-1.75 c 0.4375,0.554688 0.757813,1.179688 0.96875,1.875 0.207031,0.695312 0.269531,1.390625 0.1875,2.078125 H 11.09375 c 0.08203,-0.53125 0.0625,-1.0625 -0.0625,-1.59375 -0.125,-0.53125 -0.351562,-1 -0.671875,-1.40625 -0.625,-0.789063 -1.429687,-1.242187 -2.40625,-1.359375 -0.96875,-0.113281 -1.839844,0.136719 -2.609375,0.75 C 4.5625,-0.789062 4.117188,0 4.015625,0.96875 3.910156,1.9375 4.171875,2.816406 4.796875,3.609375 5.441406,4.429688 6.335938,4.914062 7.484375,5.0625 l -0.265625,1.5 C 6.5,6.46875 5.804688,6.242188 5.140625,5.890625 4.484375,5.535156 3.9375,5.085938 3.5,4.546875 2.582031,3.378906 2.191406,2.09375 2.328125,0.6875 2.472656,-0.707031 3.113281,-1.859375 4.25,-2.765625 c 1.125,-0.882813 2.382812,-1.226563 3.78125,-1.03125 1.394531,0.199219 2.554688,0.882813 3.484375,2.046875 z m 0,0"
             id="path43" />
        </g>
      </g>
    </g>
    <g
       fill="#000000"
       fill-opacity="1"
       id="g49"
       clip-path="url(#clipPath95)"
       transform="translate(12.820592)">
      <g
         transform="translate(254.11113,147.1411)"
         id="g48">
        <g
           id="g47">
          <path
             d="M 4.578125,8.953125 3.8125,7.4375 7.53125,5.53125 5.09375,0.78125 1.375,2.6875 l -0.765625,-1.5 8.96875,-4.59375 0.765625,1.5 -3.890625,2 2.4375,4.75 3.890625,-2 0.765625,1.515625 z m 0,0"
             id="path46" />
        </g>
      </g>
    </g>
    <g
       fill="#000000"
       fill-opacity="1"
       id="g52"
       clip-path="url(#clipPath94)"
       transform="translate(12.820592)">
      <g
         transform="translate(261.28728,162.48574)"
         id="g51">
        <g
           id="g50">
          <path
             d="M 4.296875,6.9375 2.9375,2.046875 0.484375,1.71875 0,0.015625 10.90625,1.609375 11.359375,3.265625 2.84375,10.21875 2.359375,8.46875 Z M 5.5625,5.90625 9.390625,2.875 4.546875,2.234375 Z m 0,0"
             id="path49" />
        </g>
      </g>
    </g>
    <g
       fill="#000000"
       fill-opacity="1"
       id="g55"
       clip-path="url(#clipPath93)"
       transform="translate(12.820592)">
      <g
         transform="translate(100.36396,181.49207)"
         id="g54">
        <g
           id="g53">
          <path
             d="M 0.546875,10.09375 0.453125,8.390625 4.65625,8.15625 4.375,2.796875 0.171875,3.03125 0.078125,1.328125 10.1875,0.78125 10.28125,2.484375 5.890625,2.71875 6.171875,8.078125 10.5625,7.84375 10.65625,9.546875 Z m 0,0"
             id="path52" />
        </g>
      </g>
    </g>
    <g
       fill="#000000"
       fill-opacity="1"
       id="g58"
       clip-path="url(#clipPath92)"
       transform="translate(12.820592)">
      <g
         transform="translate(102.22728,200.56512)"
         id="g57">
        <g
           id="g56">
          <path
             d="M 4.203125,7.046875 2.90625,2.09375 0.453125,1.734375 0,0.015625 10.9375,1.78125 11.375,3.46875 2.703125,10.3125 2.234375,8.5625 Z m 1.3125,-1.03125 3.875,-2.984375 -4.84375,-0.703125 z m 0,0"
             id="path55" />
        </g>
      </g>
    </g>
    <g
       fill="#000000"
       fill-opacity="1"
       id="g61"
       clip-path="url(#clipPath91)"
       transform="translate(12.820592)">
      <g
         transform="translate(107.61234,218.12739)"
         id="g60">
        <g
           id="g59">
          <path
             d="m 3.375,6.96875 1.953125,-3 C 5.273438,3.894531 5.203125,3.757812 5.109375,3.5625 L 4.0625,1.40625 1.328125,2.734375 0.578125,1.1875 9.6875,-3.234375 11.484375,0.46875 c 0.5625,1.164062 0.726563,2.203125 0.5,3.109375 C 11.753906,4.484375 11.144531,5.175781 10.15625,5.65625 9.425781,6.007812 8.734375,6.144531 8.078125,6.0625 7.421875,5.976562 6.820312,5.6875 6.28125,5.1875 L 4.234375,8.71875 Z M 5.46875,0.734375 6.515625,2.890625 C 7.234375,4.367188 8.195312,4.8125 9.40625,4.21875 10.59375,3.644531 10.828125,2.617188 10.109375,1.140625 L 9.0625,-1.015625 Z m 0,0"
             id="path58" />
        </g>
      </g>
    </g>
    <g
       fill="#000000"
       fill-opacity="1"
       id="g64"
       clip-path="url(#clipPath90)"
       transform="translate(12.820592)">
      <g
         transform="translate(116.20509,234.03011)"
         id="g63">
        <g
           id="g62">
          <path
             d="M 11.8125,1.546875 9.90625,-1.046875 2.984375,4.046875 1.96875,2.6875 8.890625,-2.40625 7,-5 l 1.234375,-0.90625 4.8125,6.546875 z m 0,0"
             id="path61" />
        </g>
      </g>
    </g>
    <g
       fill="#000000"
       fill-opacity="1"
       id="g67"
       clip-path="url(#clipPath89)"
       transform="translate(12.820592)">
      <g
         transform="translate(126.16615,246.68908)"
         id="g66">
        <g
           id="g65">
          <path
             d="M 8.90625,8.09375 7.734375,7.03125 12.8125,1.4375 6.078125,4.09375 5.265625,3.34375 7.25,-3.625 2.171875,1.96875 l -1.1875,-1.078125 6.8125,-7.5 1.5,1.375 -2.03125,7.21875 6.96875,-2.734375 1.484375,1.34375 z m 0,0"
             id="path64" />
        </g>
      </g>
    </g>
    <g
       fill="#000000"
       fill-opacity="1"
       id="g70"
       clip-path="url(#clipPath88)"
       transform="translate(12.820592)">
      <g
         transform="translate(142.46215,260.17948)"
         id="g69">
        <g
           id="g68">
          <path
             d="M 7.953125,1.984375 3.53125,-0.578125 1.5625,0.90625 0.015625,0.015625 l 8.9375,-6.53125 1.515625,0.875 -1.25,10.984375 -1.5625,-0.90625 z m 0.203125,-1.65625 0.609375,-4.859375 -3.90625,2.9375 z m 0,0"
             id="path67" />
        </g>
      </g>
    </g>
    <g
       fill="#000000"
       fill-opacity="1"
       id="g73"
       clip-path="url(#clipPath87)"
       transform="translate(12.820592)">
      <g
         transform="translate(158.74601,268.75564)"
         id="g72">
        <g
           id="g71">
          <path
             d="M 9.578125,3.21875 8,2.6875 5.1875,-5.921875 2.875,0.96875 1.265625,0.421875 l 3.21875,-9.59375 1.59375,0.53125 2.828125,8.625 2.3125,-6.890625 1.578125,0.53125 z m 0,0"
             id="path70" />
        </g>
      </g>
    </g>
    <g
       fill="#000000"
       fill-opacity="1"
       id="g76"
       clip-path="url(#clipPath86)"
       transform="translate(12.820592)">
      <g
         transform="translate(177.19361,274.10172)"
         id="g75">
        <g
           id="g74">
          <path
             d="M 10.046875,1.1875 8.375,1 3.875,-6.859375 3.015625,0.359375 1.3125,0.15625 2.5,-9.90625 l 1.6875,0.203125 4.515625,7.875 L 9.5625,-9.0625 11.234375,-8.875 Z m 0,0"
             id="path73" />
        </g>
      </g>
    </g>
    <g
       fill="#000000"
       fill-opacity="1"
       id="g79"
       clip-path="url(#clipPath85)"
       transform="translate(12.820592)">
      <g
         transform="translate(171.22713,221.24204)"
         id="g78">
        <g
           id="g77">
          <path
             d="M 21.640625,0 H 2.171875 v -0.71875 c 2.0625,0 3.5625,-0.625 4.5,-1.875 0.9375,-1.25 1.523437,-3.289062 1.765625,-6.125 0.238281,-2.84375 0.359375,-6.625 0.359375,-11.34375 v -32.015625 c 0,-4.769531 -0.121094,-8.5625 -0.359375,-11.375 -0.242188,-2.8125 -0.828125,-4.84375 -1.765625,-6.09375 -0.9375,-1.25 -2.4375,-1.875 -4.5,-1.875 v -0.71875 h 19.46875 v 0.71875 c -2.0625,0 -3.5625,0.625 -4.5,1.875 -0.9375,1.25 -1.53125,3.28125 -1.78125,6.09375 C 15.117188,-60.640625 15,-56.847656 15,-52.078125 v 12.609375 c 0.4375,-0.957031 1.398438,-1.90625 2.890625,-2.84375 1.488281,-0.9375 3.316406,-1.40625 5.484375,-1.40625 2.40625,0 4.6875,0.375 6.84375,1.125 2.164062,0.742188 4.28125,1.484375 6.34375,2.234375 2.070312,0.742187 4.171875,1.109375 6.296875,1.109375 1.382813,0 2.617187,-0.367188 3.703125,-1.109375 1.082031,-0.75 1.625,-1.75 1.625,-3 h 0.71875 c 0,2.117187 -0.828125,3.96875 -2.484375,5.5625 -1.65625,1.585937 -3.90625,2.375 -6.75,2.375 -2.210937,0 -4.230469,-0.320313 -6.0625,-0.96875 -1.824219,-0.65625 -3.53125,-1.390625 -5.125,-2.203125 -1.585937,-0.820312 -3.0625,-1.554688 -4.4375,-2.203125 -1.367187,-0.644531 -2.695313,-0.96875 -3.984375,-0.96875 -1.886719,0 -3.203125,0.636719 -3.953125,1.90625 C 15.367188,-38.585938 15,-37.109375 15,-35.421875 V -20.0625 c 0,4.71875 0.117188,8.5 0.359375,11.34375 0.25,2.835938 0.84375,4.875 1.78125,6.125 0.9375,1.25 2.4375,1.875 4.5,1.875 z M 44.4375,-71.421875 v -0.71875 h 19.484375 v 0.71875 c -2.074219,0 -3.578125,0.625 -4.515625,1.875 -0.9375,1.25 -1.527344,3.28125 -1.765625,6.09375 -0.242187,2.8125 -0.359375,6.605469 -0.359375,11.375 V -20.0625 c 0,4.71875 0.117188,8.5 0.359375,11.34375 0.238281,2.835938 0.828125,4.875 1.765625,6.125 0.9375,1.25 2.441406,1.875 4.515625,1.875 V 0 H 44.4375 v -0.71875 c 2.070312,0 3.578125,-0.625 4.515625,-1.875 0.9375,-1.25 1.523437,-3.289062 1.765625,-6.125 0.238281,-2.84375 0.359375,-6.625 0.359375,-11.34375 v -32.015625 c 0,-4.769531 -0.121094,-8.5625 -0.359375,-11.375 -0.242188,-2.8125 -0.828125,-4.84375 -1.765625,-6.09375 -0.9375,-1.25 -2.445313,-1.875 -4.515625,-1.875 z m 0,0"
             id="path76" />
        </g>
      </g>
    </g>
    <g
       fill="#000000"
       fill-opacity="1"
       id="g82"
       clip-path="url(#clipPath84)"
       transform="translate(12.820592)">
      <g
         transform="translate(149.79621,218.32639)"
         id="g81">
        <g
           id="g80">
          <path
             d="M -4.171875,17.1875 -4,16.34375 c 0,0 0.167969,0.01563 0.5,0.04687 0.335938,0.03125 0.609375,0.04687 0.828125,0.04687 2.7265625,0 5.019531,-0.964844 6.875,-2.890625 1.863281,-1.917969 3.28125,-4.53125 4.25,-7.84375 0.976563,-3.304687 1.46875,-7.066406 1.46875,-11.296875 v -54.640625 c 0,-5.5 -0.140625,-9.875 -0.421875,-13.125 -0.273438,-3.257813 -0.949219,-5.613281 -2.03125,-7.0625 C 6.382812,-81.867188 4.644531,-82.59375 2.25,-82.59375 v -0.828125 h 22.53125 v 0.828125 c -2.398438,0 -4.136719,0.726562 -5.21875,2.171875 -1.085938,1.449219 -1.765625,3.804687 -2.046875,7.0625 -0.28125,3.25 -0.421875,7.625 -0.421875,13.125 V -5.75 c 0,3 -0.445312,5.890625 -1.328125,8.671875 -0.886719,2.78125 -2.152344,5.269531 -3.796875,7.46875 -1.636719,2.195313 -3.585938,3.929687 -5.84375,5.203125 -2.25,1.28125 -4.710938,1.921875 -7.375,1.921875 -0.664062,0 -1.191406,-0.04297 -1.578125,-0.125 -0.394531,-0.08594 -0.84375,-0.152344 -1.34375,-0.203125 z m 0,0"
             id="path79" />
        </g>
      </g>
    </g>
  </g>
</svg>
