<?xml version="1.0" encoding="UTF-8" standalone="no"?>
<svg
   viewBox="0 0 53.139999 43.335312"
   version="1.1"
   id="svg7"
   width="53.139999"
   height="43.335312"
   xmlns="http://www.w3.org/2000/svg"
   xmlns:svg="http://www.w3.org/2000/svg">
  <defs
     id="defs1">
    <style
       id="style1">.cls-1{fill:none;}.cls-2{fill:#3d3d63;}</style>
  </defs>
  <title
     id="title1" />
  <g
     data-name="Layer 2"
     id="Layer_2"
     transform="translate(-5.2973978,-6.8329364)"
     style="fill:#000000">
    <g
       id="Icons"
       transform="translate(1.2639405,-7.3605948)"
       style="fill:#000000">
      <g
         id="Development"
         transform="translate(-0.96654272,2.4535312)"
         style="fill:#000000">
        <circle
           class="cls-2"
           cx="9.3299999"
           cy="15.74"
           r="1"
           id="circle1"
           style="fill:#000000" />
        <circle
           class="cls-2"
           cx="16"
           cy="15.74"
           r="1"
           id="circle2"
           style="fill:#000000" />
        <circle
           class="cls-2"
           cx="12.67"
           cy="15.74"
           r="1"
           id="circle3"
           style="fill:#000000" />
        <path
           class="cls-2"
           d="m 20,30.25 3,-3 a 1.0040916,1.0040916 0 1 0 -1.42,-1.42 l -3.72,3.73 a 1,1 0 0 0 0,1.41 l 3.72,3.73 a 1,1 0 0 0 1.42,0 1,1 0 0 0 0,-1.41 z"
           id="path3"
           style="fill:#000000" />
        <path
           class="cls-2"
           d="m 34.32,34.68 a 1,1 0 0 0 1.41,0 L 39.46,31 a 1,1 0 0 0 0,-1.41 l -3.73,-3.73 a 1.0005623,1.0005623 0 0 0 -1.41,1.42 l 3,3 -3,3 a 1,1 0 0 0 0,1.4 z"
           id="path4"
           style="fill:#000000" />
        <path
           class="cls-2"
           d="m 31,26.15 a 1,1 0 0 0 -1.37,0.37 L 25.94,33 a 1,1 0 1 0 1.73,1 L 31.4,27.55 A 1,1 0 0 0 31,26.15 Z"
           id="path5"
           style="fill:#000000" />
        <path
           class="cls-2"
           d="m 55.86,40 a 0.29,0.29 0 0 1 -0.27,-0.19 10.43,10.43 0 0 0 -1.67,-2.89 0.29,0.29 0 0 1 0,-0.33 2.3,2.3 0 0 0 -0.84,-3.14 L 52.33,33 V 14.74 a 3,3 0 0 0 -3,-3 H 8 a 3,3 0 0 0 -3,3 v 25.34 a 2.34,2.34 0 0 0 2.33,2.33 H 21 l -1,3.7 h -1.33 a 4.33,4.33 0 0 0 -4.21,3.33 H 12 a 1,1 0 0 0 0,2 h 25.47 a 2.12,2.12 0 0 0 0.07,0.71 2.25,2.25 0 0 0 1.07,1.4 l 2.11,1.22 a 2.3,2.3 0 0 0 3.14,-0.85 0.31,0.31 0 0 1 0.31,-0.14 9.74,9.74 0 0 0 3.32,0 0.3,0.3 0 0 1 0.31,0.15 2.3,2.3 0 0 0 2,1.14 2.27,2.27 0 0 0 1.15,-0.3 l 2.11,-1.22 a 2.29,2.29 0 0 0 1.07,-1.4 2.26,2.26 0 0 0 -0.23,-1.74 0.3,0.3 0 0 1 0,-0.34 10.52,10.52 0 0 0 1.67,-2.88 0.28,0.28 0 0 1 0.27,-0.19 2.31,2.31 0 0 0 2.3,-2.3 V 42.26 A 2.3,2.3 0 0 0 55.86,40 Z M 7,14.74 a 1,1 0 0 1 1,-1 h 41.33 a 1,1 0 0 1 1,1 v 3 H 7 Z M 7.33,40.41 A 0.33,0.33 0 0 1 7,40.08 V 19.74 H 50.33 V 32 a 2.29,2.29 0 0 0 -2.53,1 v 0 a 0.29,0.29 0 0 1 -0.3,0.13 10.27,10.27 0 0 0 -3.32,0 0.28,0.28 0 0 1 -0.3,-0.13 v 0 a 2.29,2.29 0 0 0 -3.14,-0.84 l -2.11,1.22 a 2.24,2.24 0 0 0 -1.07,1.39 2.32,2.32 0 0 0 0.22,1.75 0.27,0.27 0 0 1 0,0.33 10.43,10.43 0 0 0 -1.67,2.89 0.29,0.29 0 0 1 -0.27,0.19 2.29,2.29 0 0 0 -1.36,0.45 z M 34,46.11 H 22 l 1,-3.7 h 10.5 v 2.29 a 2.32,2.32 0 0 0 0.5,1.41 z m -15.32,2 h 17.8 a 11,11 0 0 0 0.78,1.33 H 16.57 a 2.33,2.33 0 0 1 2.1,-1.33 z M 56.16,44.7 a 0.3,0.3 0 0 1 -0.3,0.3 2.31,2.31 0 0 0 -2.15,1.48 8.46,8.46 0 0 1 -1.34,2.33 2.31,2.31 0 0 0 -0.21,2.6 0.26,0.26 0 0 1 0,0.22 0.29,0.29 0 0 1 -0.14,0.19 L 49.94,53 a 0.3,0.3 0 0 1 -0.41,-0.12 2.31,2.31 0 0 0 -2.37,-1.11 7.92,7.92 0 0 1 -2.66,0 2.31,2.31 0 0 0 -2.37,1.12 0.31,0.31 0 0 1 -0.41,0.11 l -2.11,-1.22 a 0.29,0.29 0 0 1 -0.14,-0.19 0.26,0.26 0 0 1 0,-0.22 2.33,2.33 0 0 0 -0.21,-2.6 A 8.35,8.35 0 0 1 37.91,46.44 2.28,2.28 0 0 0 35.8,45 0.3,0.3 0 0 1 35.5,44.7 v -2.44 a 0.29,0.29 0 0 1 0.3,-0.3 2.3,2.3 0 0 0 2.14,-1.48 8.21,8.21 0 0 1 1.35,-2.33 2.33,2.33 0 0 0 0.21,-2.6 0.28,0.28 0 0 1 0,-0.23 0.26,0.26 0 0 1 0.14,-0.18 l 2.11,-1.22 a 0.28,0.28 0 0 1 0.15,0 0.3,0.3 0 0 1 0.25,0.14 v 0 a 2.32,2.32 0 0 0 2.37,1.12 7.92,7.92 0 0 1 2.66,0 2.33,2.33 0 0 0 2.35,-1.18 v 0 a 0.29,0.29 0 0 1 0.4,-0.1 l 2.11,1.22 a 0.26,0.26 0 0 1 0.14,0.18 0.28,0.28 0 0 1 0,0.23 2.3,2.3 0 0 0 0.21,2.59 8.51,8.51 0 0 1 1.34,2.34 2.32,2.32 0 0 0 2.13,1.54 0.29,0.29 0 0 1 0.3,0.3 z"
           id="path6"
           style="display:inline;fill:#000000" />
        <path
           class="cls-2"
           d="m 45.83,38.94 a 4.54,4.54 0 1 0 4.54,4.54 4.54,4.54 0 0 0 -4.54,-4.54 z m 0,7.08 A 2.54,2.54 0 1 1 48.37,43.48 2.54,2.54 0 0 1 45.83,46 Z"
           id="path7"
           style="fill:#000000" />
      </g>
    </g>
  </g>
</svg>
